<?xml version="1.0" encoding="utf-8"?>
<!-- Generator: Adobe Illustrator 27.2.0, SVG Export Plug-In . SVG Version: 6.00 Build 0)  -->
<svg version="1.1" id="Capa_1" xmlns="http://www.w3.org/2000/svg" xmlns:xlink="http://www.w3.org/1999/xlink" x="0px" y="0px"
	 viewBox="0 0 800 800" style="enable-background:new 0 0 800 800;" xml:space="preserve">
<style type="text/css">
	.st0{fill:#FFFFFF;}
</style>
<g>
	<path class="st0" d="M292,568.2c31.6,16.1,67,24.5,102.3,25.2c1.7,0,3.9,0,5.6,0c35.8,0,71.2-7.7,103.4-23.1
		c29.5-14,56.1-35.1,75.7-61.4c22.4-30.1,34-66.2,34-103.8c0-23.8,0-47.4,0-71.2c0-25.9,0-51.6,0-77.4c0-9.1,0-18.2,0-27
		c0-16.5-16.5-27.3-31.6-21.4l-79.9,33.3c-5.2,2.1-11.2,2.5-16.5,0.3c-25.9-10.2-54.7-15.4-85.2-15.4s-59.2,5.6-85.2,15.4
		c-5.2,2.1-11.2,1.7-16.5-0.3l-80-32.2c-15.1-6.3-31.6,4.9-31.6,21.4c0,12.3,0,24.9,0,37.2c0,25.6,0,51.2,0,77.1
		c0,21.7,0,43.1,0,64.9c0,34.7,11.2,68.4,31.2,96.4C236.9,532.4,262.9,553.5,292,568.2z M477.8,405.8c19.3,0,35.1,15.7,35.1,35.1
		S497.2,476,477.8,476s-35.1-15.7-35.1-35.1C442.7,421.3,458.5,405.8,477.8,405.8z M322.1,405.8c19.3,0,35.1,15.7,35.1,35.1
		S341.5,476,322.1,476c-19.3,0-35.1-15.7-35.1-35.1C287.1,421.3,302.9,405.8,322.1,405.8z"/>
</g>
</svg>
